<mxfile host="65bd71144e">
    <diagram name="Minikube OpenSearch Prometheus構成" id="Wp9Tot8XLC37BgMdsrnz">
        <mxGraphModel dx="1456" dy="804" grid="1" gridSize="10" guides="1" tooltips="1" connect="1" arrows="1" fold="1" page="1" pageScale="1" pageWidth="827" pageHeight="1169" math="0" shadow="0">
            <root>
                <mxCell id="0"/>
                <mxCell id="1" parent="0"/>
                <!-- VPC Container -->
                <mxCell id="vpc-container" value="VPC (10.0.0.0/16)" style="points=[[0,0],[0.25,0],[0.5,0],[0.75,0],[1,0],[1,0.25],[1,0.5],[1,0.75],[1,1],[0.75,1],[0.5,1],[0.25,1],[0,1],[0,0.75],[0,0.5],[0,0.25]];outlineConnect=0;gradientColor=none;html=1;whiteSpace=wrap;fontSize=12;fontStyle=0;container=1;pointerEvents=0;collapsible=0;recursiveResize=0;shape=mxgraph.aws4.group;grIcon=mxgraph.aws4.group_vpc;strokeColor=#248814;fillColor=none;verticalAlign=top;align=left;spacingLeft=30;fontColor=#AAB7B8;dashed=0;" vertex="1" parent="1">
                    <mxGeometry x="80" y="120" width="640" height="480" as="geometry"/>
                </mxCell>
                
                <!-- Internet Gateway -->
                <mxCell id="igw" value="インターネットゲートウェイ" style="sketch=0;outlineConnect=0;fontColor=#232F3E;gradientColor=none;fillColor=#8C4FFF;strokeColor=none;dashed=0;verticalLabelPosition=bottom;verticalAlign=top;align=center;html=1;fontSize=12;fontStyle=0;aspect=fixed;pointerEvents=1;shape=mxgraph.aws4.internet_gateway;" vertex="1" parent="1">
                    <mxGeometry x="361" y="40" width="78" height="78" as="geometry"/>
                </mxCell>
                
                <!-- Public Subnet -->
                <mxCell id="subnet1" value="パブリックサブネット" style="points=[[0,0],[0.25,0],[0.5,0],[0.75,0],[1,0],[1,0.25],[1,0.5],[1,0.75],[1,1],[0.75,1],[0.5,1],[0.25,1],[0,1],[0,0.75],[0,0.5],[0,0.25]];outlineConnect=0;gradientColor=none;html=1;whiteSpace=wrap;fontSize=12;fontStyle=0;container=1;pointerEvents=0;collapsible=0;recursiveResize=0;shape=mxgraph.aws4.group;grIcon=mxgraph.aws4.group_security_group;strokeColor=#248814;fillColor=none;verticalAlign=top;align=left;spacingLeft=30;fontColor=#248814;dashed=0;" vertex="1" parent="vpc-container">
                    <mxGeometry x="40" y="60" width="560" height="320" as="geometry"/>
                </mxCell>
                
                <!-- EC2 Instance -->
                <mxCell id="ec2-instance" value="EC2インスタンス&#xa;(Minikube + Docker)" style="sketch=0;points=[[0,0,0],[0.25,0,0],[0.5,0,0],[0.75,0,0],[1,0,0],[0,1,0],[0.25,1,0],[0.5,1,0],[0.75,1,0],[1,1,0],[0,0.25,0],[0,0.5,0],[0,0.75,0],[1,0.25,0],[1,0.5,0],[1,0.75,0]];outlineConnect=0;fontColor=#232F3E;gradientColor=none;fillColor=#ED7100;strokeColor=none;dashed=0;verticalLabelPosition=bottom;verticalAlign=top;align=center;html=1;fontSize=12;fontStyle=0;aspect=fixed;shape=mxgraph.aws4.ec2_instance;" vertex="1" parent="subnet1">
                    <mxGeometry x="80" y="60" width="78" height="78" as="geometry"/>
                </mxCell>
                
                <!-- Kubernetes Cluster -->
                <mxCell id="k8s-cluster" value="Minikube Cluster" style="points=[[0,0],[0.25,0],[0.5,0],[0.75,0],[1,0],[1,0.25],[1,0.5],[1,0.75],[1,1],[0.75,1],[0.5,1],[0.25,1],[0,1],[0,0.75],[0,0.5],[0,0.25]];outlineConnect=0;gradientColor=none;html=1;whiteSpace=wrap;fontSize=12;fontStyle=0;container=1;pointerEvents=0;collapsible=0;recursiveResize=0;shape=mxgraph.aws4.group;grIcon=mxgraph.aws4.group_auto_scaling_group;strokeColor=#FF9900;fillColor=none;verticalAlign=top;align=left;spacingLeft=30;fontColor=#FF9900;dashed=1;" vertex="1" parent="subnet1">
                    <mxGeometry x="240" y="40" width="280" height="240" as="geometry"/>
                </mxCell>
                
                <!-- OpenSearch Leader -->
                <mxCell id="opensearch-leader" value="OpenSearch&#xa;リーダーノード" style="sketch=0;outlineConnect=0;fontColor=#232F3E;gradientColor=none;fillColor=#8C4FFF;strokeColor=none;dashed=0;verticalLabelPosition=bottom;verticalAlign=top;align=center;html=1;fontSize=12;fontStyle=0;aspect=fixed;pointerEvents=1;shape=mxgraph.aws4.opensearch_service;" vertex="1" parent="k8s-cluster">
                    <mxGeometry x="40" y="40" width="78" height="78" as="geometry"/>
                </mxCell>
                
                <!-- OpenSearch Data -->
                <mxCell id="opensearch-data" value="OpenSearch&#xa;データノード" style="sketch=0;outlineConnect=0;fontColor=#232F3E;gradientColor=none;fillColor=#8C4FFF;strokeColor=none;dashed=0;verticalLabelPosition=bottom;verticalAlign=top;align=center;html=1;fontSize=12;fontStyle=0;aspect=fixed;pointerEvents=1;shape=mxgraph.aws4.opensearch_service;" vertex="1" parent="k8s-cluster">
                    <mxGeometry x="160" y="40" width="78" height="78" as="geometry"/>
                </mxCell>
                
                <!-- Prometheus -->
                <mxCell id="prometheus" value="Prometheus&#xa;モニタリング" style="sketch=0;outlineConnect=0;fontColor=#232F3E;gradientColor=none;fillColor=#FF9900;strokeColor=none;dashed=0;verticalLabelPosition=bottom;verticalAlign=top;align=center;html=1;fontSize=12;fontStyle=0;aspect=fixed;pointerEvents=1;shape=mxgraph.aws4.cloudwatch;" vertex="1" parent="k8s-cluster">
                    <mxGeometry x="100" y="140" width="78" height="78" as="geometry"/>
                </mxCell>
                
                <!-- Route Table -->
                <mxCell id="route-table" value="ルートテーブル" style="sketch=0;outlineConnect=0;fontColor=#232F3E;gradientColor=none;fillColor=#8C4FFF;strokeColor=none;dashed=0;verticalLabelPosition=bottom;verticalAlign=top;align=center;html=1;fontSize=12;fontStyle=0;aspect=fixed;pointerEvents=1;shape=mxgraph.aws4.route_table;" vertex="1" parent="vpc-container">
                    <mxGeometry x="281" y="400" width="78" height="78" as="geometry"/>
                </mxCell>
                
                <!-- Security Group -->
                <mxCell id="sg1" value="セキュリティグループ&#xa;(SSH: クライアントIP)" style="sketch=0;outlineConnect=0;fontColor=#232F3E;gradientColor=none;fillColor=#FF9900;strokeColor=none;dashed=0;verticalLabelPosition=bottom;verticalAlign=top;align=center;html=1;fontSize=12;fontStyle=0;aspect=fixed;pointerEvents=1;shape=mxgraph.aws4.security_group;" vertex="1" parent="vpc-container">
                    <mxGeometry x="40" y="400" width="78" height="78" as="geometry"/>
                </mxCell>
                
                <!-- IAM Role -->
                <mxCell id="iam-role" value="IAMロール&#xa;(EC2インスタンス用)" style="sketch=0;outlineConnect=0;fontColor=#232F3E;gradientColor=none;fillColor=#FF9900;strokeColor=none;dashed=0;verticalLabelPosition=bottom;verticalAlign=top;align=center;html=1;fontSize=12;fontStyle=0;aspect=fixed;pointerEvents=1;shape=mxgraph.aws4.identity_and_access_management_iam;" vertex="1" parent="vpc-container">
                    <mxGeometry x="522" y="400" width="78" height="78" as="geometry"/>
                </mxCell>
                
                <!-- Key Pair -->
                <mxCell id="keypair" value="キーペア" style="sketch=0;outlineConnect=0;fontColor=#232F3E;gradientColor=none;fillColor=#232F3D;strokeColor=none;dashed=0;verticalLabelPosition=bottom;verticalAlign=top;align=center;html=1;fontSize=12;fontStyle=0;aspect=fixed;pointerEvents=1;shape=mxgraph.aws4.credentials;" vertex="1" parent="1">
                    <mxGeometry x="40" y="640" width="56" height="78" as="geometry"/>
                </mxCell>
                
                <!-- Client -->
                <mxCell id="client" value="クライアント" style="sketch=0;outlineConnect=0;fontColor=#232F3E;gradientColor=none;fillColor=#232F3D;strokeColor=none;dashed=0;verticalLabelPosition=bottom;verticalAlign=top;align=center;html=1;fontSize=12;fontStyle=0;aspect=fixed;pointerEvents=1;shape=mxgraph.aws4.client;" vertex="1" parent="1">
                    <mxGeometry x="200" y="40" width="78" height="76" as="geometry"/>
                </mxCell>
                
                <!-- Connections -->
                <mxCell id="conn1" value="SSH" style="endArrow=classic;html=1;rounded=0;exitX=1;exitY=0.5;exitDx=0;exitDy=0;exitPerimeter=0;entryX=0;entryY=0.5;entryDx=0;entryDy=0;entryPerimeter=0;" edge="1" parent="1" source="client" target="igw">
                    <mxGeometry width="50" height="50" relative="1" as="geometry">
                        <mxPoint x="300" y="200" as="sourcePoint"/>
                        <mxPoint x="350" y="150" as="targetPoint"/>
                    </mxGeometry>
                </mxCell>
                
                <mxCell id="conn2" value="" style="endArrow=classic;html=1;rounded=0;exitX=0.5;exitY=1;exitDx=0;exitDy=0;exitPerimeter=0;entryX=0.5;entryY=0;entryDx=0;entryDy=0;" edge="1" parent="1" source="igw" target="vpc-container">
                    <mxGeometry width="50" height="50" relative="1" as="geometry">
                        <mxPoint x="300" y="200" as="sourcePoint"/>
                        <mxPoint x="350" y="150" as="targetPoint"/>
                    </mxGeometry>
                </mxCell>
                
                <mxCell id="conn3" value="" style="endArrow=classic;html=1;rounded=0;exitX=1;exitY=0.5;exitDx=0;exitDy=0;exitPerimeter=0;entryX=0;entryY=0.5;entryDx=0;entryDy=0;" edge="1" parent="1" source="ec2-instance" target="k8s-cluster">
                    <mxGeometry width="50" height="50" relative="1" as="geometry">
                        <mxPoint x="300" y="300" as="sourcePoint"/>
                        <mxPoint x="350" y="250" as="targetPoint"/>
                    </mxGeometry>
                </mxCell>
            </root>
        </mxGraphModel>
    </diagram>
</mxfile>